<svg width="150" height="40" viewBox="0 0 150 40" fill="none" xmlns="http://www.w3.org/2000/svg">
<path d="M5.61675 2.55498C5.83704 1.08642 7.09857 0 8.58356 0H146.516C148.351 0 149.755 1.63121 149.483 3.44502L144.383 37.445C144.163 38.9136 142.901 40 141.416 40H3.48357C1.64946 40 0.244681 38.3688 0.516753 36.555L5.61675 2.55498Z" fill="#3B82F6"/>
<path d="M33.52 11.152V21.232C33.52 22.24 33.768 23.016 34.264 23.56C34.76 24.104 35.488 24.376 36.448 24.376C37.408 24.376 38.144 24.104 38.656 23.56C39.168 23.016 39.424 22.24 39.424 21.232V11.152H43.528V21.208C43.528 22.712 43.208 23.984 42.568 25.024C41.928 26.064 41.064 26.848 39.976 27.376C38.904 27.904 37.704 28.168 36.376 28.168C35.048 28.168 33.856 27.912 32.8 27.4C31.76 26.872 30.936 26.088 30.328 25.048C29.72 23.992 29.416 22.712 29.416 21.208V11.152H33.52ZM54.5699 14.464C56.1379 14.464 57.3859 14.976 58.3139 16C59.2579 17.008 59.7299 18.4 59.7299 20.176V28H55.6499V20.728C55.6499 19.832 55.4179 19.136 54.9539 18.64C54.4899 18.144 53.8659 17.896 53.0819 17.896C52.2979 17.896 51.6739 18.144 51.2099 18.64C50.7459 19.136 50.5139 19.832 50.5139 20.728V28H46.4099V14.608H50.5139V16.384C50.9299 15.792 51.4899 15.328 52.1939 14.992C52.8979 14.64 53.6899 14.464 54.5699 14.464ZM64.6458 13.216C63.9258 13.216 63.3338 13.008 62.8698 12.592C62.4218 12.16 62.1978 11.632 62.1978 11.008C62.1978 10.368 62.4218 9.84 62.8698 9.424C63.3338 8.992 63.9258 8.776 64.6458 8.776C65.3498 8.776 65.9258 8.992 66.3738 9.424C66.8378 9.84 67.0698 10.368 67.0698 11.008C67.0698 11.632 66.8378 12.16 66.3738 12.592C65.9258 13.008 65.3498 13.216 64.6458 13.216ZM66.6858 14.608V28H62.5818V14.608H66.6858ZM82.4999 16.576C82.4999 17.552 82.2759 18.448 81.8279 19.264C81.3799 20.064 80.6919 20.712 79.7639 21.208C78.8359 21.704 77.6839 21.952 76.3079 21.952H73.7639V28H69.6599V11.152H76.3079C77.6519 11.152 78.7879 11.384 79.7159 11.848C80.6439 12.312 81.3399 12.952 81.8039 13.768C82.2679 14.584 82.4999 15.52 82.4999 16.576ZM75.9959 18.688C76.7799 18.688 77.3639 18.504 77.7479 18.136C78.1319 17.768 78.3239 17.248 78.3239 16.576C78.3239 15.904 78.1319 15.384 77.7479 15.016C77.3639 14.648 76.7799 14.464 75.9959 14.464H73.7639V18.688H75.9959ZM88.7404 10.24V28H84.6364V10.24H88.7404ZM90.8986 21.28C90.8986 19.904 91.1546 18.696 91.6666 17.656C92.1946 16.616 92.9066 15.816 93.8026 15.256C94.6986 14.696 95.6986 14.416 96.8026 14.416C97.7466 14.416 98.5706 14.608 99.2746 14.992C99.9946 15.376 100.547 15.88 100.931 16.504V14.608H105.035V28H100.931V26.104C100.531 26.728 99.9706 27.232 99.2506 27.616C98.5466 28 97.7226 28.192 96.7786 28.192C95.6906 28.192 94.6986 27.912 93.8026 27.352C92.9066 26.776 92.1946 25.968 91.6666 24.928C91.1546 23.872 90.8986 22.656 90.8986 21.28ZM100.931 21.304C100.931 20.28 100.643 19.472 100.067 18.88C99.5066 18.288 98.8186 17.992 98.0026 17.992C97.1866 17.992 96.4906 18.288 95.9146 18.88C95.3546 19.456 95.0746 20.256 95.0746 21.28C95.0746 22.304 95.3546 23.12 95.9146 23.728C96.4906 24.32 97.1866 24.616 98.0026 24.616C98.8186 24.616 99.5066 24.32 100.067 23.728C100.643 23.136 100.931 22.328 100.931 21.304ZM116.164 14.464C117.732 14.464 118.98 14.976 119.908 16C120.852 17.008 121.324 18.4 121.324 20.176V28H117.244V20.728C117.244 19.832 117.012 19.136 116.548 18.64C116.084 18.144 115.46 17.896 114.676 17.896C113.892 17.896 113.268 18.144 112.804 18.64C112.34 19.136 112.108 19.832 112.108 20.728V28H108.004V14.608H112.108V16.384C112.524 15.792 113.084 15.328 113.788 14.992C114.492 14.64 115.284 14.464 116.164 14.464Z" fill="white"/>
</svg>
